<mxfile host="app.diagrams.net" modified="2023-07-08T21:42:01.384Z" agent="Mozilla/5.0 (Macintosh; Intel Mac OS X 10_15_7) AppleWebKit/537.36 (KHTML, like Gecko) Chrome/112.0.0.0 Safari/537.36" etag="0RnZJVQDNtr2RUl_VjrN" version="21.6.1" type="github">
  <diagram name="Page-1" id="RRPFjxzhQCEHfaM7k7tD">
    <mxGraphModel dx="2261" dy="828" grid="1" gridSize="10" guides="1" tooltips="1" connect="1" arrows="1" fold="1" page="1" pageScale="1" pageWidth="827" pageHeight="1169" math="0" shadow="0">
      <root>
        <mxCell id="0" />
        <mxCell id="1" parent="0" />
        <mxCell id="RxcSMogLH4-RXk6YXUM4-2" value="&amp;lt;&amp;lt;interface&amp;gt;&amp;gt;&amp;nbsp;&lt;br&gt;Vehicle" style="swimlane;fontStyle=1;align=center;verticalAlign=top;childLayout=stackLayout;horizontal=1;startSize=40;horizontalStack=0;resizeParent=1;resizeParentMax=0;resizeLast=0;collapsible=1;marginBottom=0;whiteSpace=wrap;html=1;" vertex="1" parent="1">
          <mxGeometry x="290" y="50" width="160" height="130" as="geometry" />
        </mxCell>
        <mxCell id="RxcSMogLH4-RXk6YXUM4-3" value="+ color: Color&lt;br&gt;+ wheeler : Wheeler" style="text;strokeColor=none;fillColor=none;align=left;verticalAlign=top;spacingLeft=4;spacingRight=4;overflow=hidden;rotatable=0;points=[[0,0.5],[1,0.5]];portConstraint=eastwest;whiteSpace=wrap;html=1;" vertex="1" parent="RxcSMogLH4-RXk6YXUM4-2">
          <mxGeometry y="40" width="160" height="50" as="geometry" />
        </mxCell>
        <mxCell id="RxcSMogLH4-RXk6YXUM4-4" value="" style="line;strokeWidth=1;fillColor=none;align=left;verticalAlign=middle;spacingTop=-1;spacingLeft=3;spacingRight=3;rotatable=0;labelPosition=right;points=[];portConstraint=eastwest;strokeColor=inherit;" vertex="1" parent="RxcSMogLH4-RXk6YXUM4-2">
          <mxGeometry y="90" width="160" height="10" as="geometry" />
        </mxCell>
        <mxCell id="RxcSMogLH4-RXk6YXUM4-5" value="+ display(): void" style="text;strokeColor=none;fillColor=none;align=left;verticalAlign=top;spacingLeft=4;spacingRight=4;overflow=hidden;rotatable=0;points=[[0,0.5],[1,0.5]];portConstraint=eastwest;whiteSpace=wrap;html=1;" vertex="1" parent="RxcSMogLH4-RXk6YXUM4-2">
          <mxGeometry y="100" width="160" height="30" as="geometry" />
        </mxCell>
        <mxCell id="RxcSMogLH4-RXk6YXUM4-6" value="&amp;lt;&amp;lt;interface&amp;gt;&amp;gt;&amp;nbsp;&lt;br&gt;Wheeler" style="swimlane;fontStyle=1;align=center;verticalAlign=top;childLayout=stackLayout;horizontal=1;startSize=40;horizontalStack=0;resizeParent=1;resizeParentMax=0;resizeLast=0;collapsible=1;marginBottom=0;whiteSpace=wrap;html=1;" vertex="1" parent="1">
          <mxGeometry x="720" y="50" width="200" height="150" as="geometry" />
        </mxCell>
        <mxCell id="RxcSMogLH4-RXk6YXUM4-7" value="+ wheeler : int" style="text;strokeColor=none;fillColor=none;align=left;verticalAlign=top;spacingLeft=4;spacingRight=4;overflow=hidden;rotatable=0;points=[[0,0.5],[1,0.5]];portConstraint=eastwest;whiteSpace=wrap;html=1;" vertex="1" parent="RxcSMogLH4-RXk6YXUM4-6">
          <mxGeometry y="40" width="200" height="50" as="geometry" />
        </mxCell>
        <mxCell id="RxcSMogLH4-RXk6YXUM4-8" value="" style="line;strokeWidth=1;fillColor=none;align=left;verticalAlign=middle;spacingTop=-1;spacingLeft=3;spacingRight=3;rotatable=0;labelPosition=right;points=[];portConstraint=eastwest;strokeColor=inherit;" vertex="1" parent="RxcSMogLH4-RXk6YXUM4-6">
          <mxGeometry y="90" width="200" height="10" as="geometry" />
        </mxCell>
        <mxCell id="RxcSMogLH4-RXk6YXUM4-9" value="+ getWheel() : String&lt;br style=&quot;border-color: var(--border-color);&quot;&gt;+ setWheel(Wheeler w) : void" style="text;strokeColor=none;fillColor=none;align=left;verticalAlign=top;spacingLeft=4;spacingRight=4;overflow=hidden;rotatable=0;points=[[0,0.5],[1,0.5]];portConstraint=eastwest;whiteSpace=wrap;html=1;" vertex="1" parent="RxcSMogLH4-RXk6YXUM4-6">
          <mxGeometry y="100" width="200" height="50" as="geometry" />
        </mxCell>
        <mxCell id="RxcSMogLH4-RXk6YXUM4-10" value="&amp;lt;&amp;lt;interface&amp;gt;&amp;gt;&amp;nbsp;&lt;br&gt;Color" style="swimlane;fontStyle=1;align=center;verticalAlign=top;childLayout=stackLayout;horizontal=1;startSize=40;horizontalStack=0;resizeParent=1;resizeParentMax=0;resizeLast=0;collapsible=1;marginBottom=0;whiteSpace=wrap;html=1;" vertex="1" parent="1">
          <mxGeometry x="-130" y="50" width="160" height="150" as="geometry" />
        </mxCell>
        <mxCell id="RxcSMogLH4-RXk6YXUM4-11" value="+ color: String" style="text;strokeColor=none;fillColor=none;align=left;verticalAlign=top;spacingLeft=4;spacingRight=4;overflow=hidden;rotatable=0;points=[[0,0.5],[1,0.5]];portConstraint=eastwest;whiteSpace=wrap;html=1;" vertex="1" parent="RxcSMogLH4-RXk6YXUM4-10">
          <mxGeometry y="40" width="160" height="50" as="geometry" />
        </mxCell>
        <mxCell id="RxcSMogLH4-RXk6YXUM4-12" value="" style="line;strokeWidth=1;fillColor=none;align=left;verticalAlign=middle;spacingTop=-1;spacingLeft=3;spacingRight=3;rotatable=0;labelPosition=right;points=[];portConstraint=eastwest;strokeColor=inherit;" vertex="1" parent="RxcSMogLH4-RXk6YXUM4-10">
          <mxGeometry y="90" width="160" height="10" as="geometry" />
        </mxCell>
        <mxCell id="RxcSMogLH4-RXk6YXUM4-13" value="+ getColor() : String&lt;br&gt;+ setColor(Color c) : void" style="text;strokeColor=none;fillColor=none;align=left;verticalAlign=top;spacingLeft=4;spacingRight=4;overflow=hidden;rotatable=0;points=[[0,0.5],[1,0.5]];portConstraint=eastwest;whiteSpace=wrap;html=1;" vertex="1" parent="RxcSMogLH4-RXk6YXUM4-10">
          <mxGeometry y="100" width="160" height="50" as="geometry" />
        </mxCell>
        <mxCell id="RxcSMogLH4-RXk6YXUM4-16" value="" style="html=1;verticalAlign=bottom;labelBackgroundColor=none;endArrow=open;endFill=0;rounded=0;" edge="1" parent="1">
          <mxGeometry width="160" relative="1" as="geometry">
            <mxPoint x="30" y="109" as="sourcePoint" />
            <mxPoint x="290" y="110" as="targetPoint" />
          </mxGeometry>
        </mxCell>
        <mxCell id="RxcSMogLH4-RXk6YXUM4-17" value="" style="html=1;verticalAlign=bottom;labelBackgroundColor=none;endArrow=open;endFill=0;rounded=0;exitX=0;exitY=0.5;exitDx=0;exitDy=0;entryX=1;entryY=0.5;entryDx=0;entryDy=0;" edge="1" parent="1" source="RxcSMogLH4-RXk6YXUM4-7" target="RxcSMogLH4-RXk6YXUM4-3">
          <mxGeometry width="160" relative="1" as="geometry">
            <mxPoint x="450" y="114.5" as="sourcePoint" />
            <mxPoint x="470" y="140" as="targetPoint" />
          </mxGeometry>
        </mxCell>
        <mxCell id="RxcSMogLH4-RXk6YXUM4-19" value="BlueColor" style="swimlane;fontStyle=1;align=center;verticalAlign=top;childLayout=stackLayout;horizontal=1;startSize=40;horizontalStack=0;resizeParent=1;resizeParentMax=0;resizeLast=0;collapsible=1;marginBottom=0;whiteSpace=wrap;html=1;" vertex="1" parent="1">
          <mxGeometry x="40" y="340" width="160" height="150" as="geometry" />
        </mxCell>
        <mxCell id="RxcSMogLH4-RXk6YXUM4-20" value="+ color: &quot;blue&quot;" style="text;strokeColor=none;fillColor=none;align=left;verticalAlign=top;spacingLeft=4;spacingRight=4;overflow=hidden;rotatable=0;points=[[0,0.5],[1,0.5]];portConstraint=eastwest;whiteSpace=wrap;html=1;" vertex="1" parent="RxcSMogLH4-RXk6YXUM4-19">
          <mxGeometry y="40" width="160" height="50" as="geometry" />
        </mxCell>
        <mxCell id="RxcSMogLH4-RXk6YXUM4-21" value="" style="line;strokeWidth=1;fillColor=none;align=left;verticalAlign=middle;spacingTop=-1;spacingLeft=3;spacingRight=3;rotatable=0;labelPosition=right;points=[];portConstraint=eastwest;strokeColor=inherit;" vertex="1" parent="RxcSMogLH4-RXk6YXUM4-19">
          <mxGeometry y="90" width="160" height="10" as="geometry" />
        </mxCell>
        <mxCell id="RxcSMogLH4-RXk6YXUM4-22" value="+ getColor() : String&lt;br&gt;+ setColor(Color c) : void" style="text;strokeColor=none;fillColor=none;align=left;verticalAlign=top;spacingLeft=4;spacingRight=4;overflow=hidden;rotatable=0;points=[[0,0.5],[1,0.5]];portConstraint=eastwest;whiteSpace=wrap;html=1;" vertex="1" parent="RxcSMogLH4-RXk6YXUM4-19">
          <mxGeometry y="100" width="160" height="50" as="geometry" />
        </mxCell>
        <mxCell id="RxcSMogLH4-RXk6YXUM4-23" value="RedColor" style="swimlane;fontStyle=1;align=center;verticalAlign=top;childLayout=stackLayout;horizontal=1;startSize=40;horizontalStack=0;resizeParent=1;resizeParentMax=0;resizeLast=0;collapsible=1;marginBottom=0;whiteSpace=wrap;html=1;" vertex="1" parent="1">
          <mxGeometry x="-280" y="340" width="160" height="150" as="geometry" />
        </mxCell>
        <mxCell id="RxcSMogLH4-RXk6YXUM4-24" value="+ color: &quot;red&quot;" style="text;strokeColor=none;fillColor=none;align=left;verticalAlign=top;spacingLeft=4;spacingRight=4;overflow=hidden;rotatable=0;points=[[0,0.5],[1,0.5]];portConstraint=eastwest;whiteSpace=wrap;html=1;" vertex="1" parent="RxcSMogLH4-RXk6YXUM4-23">
          <mxGeometry y="40" width="160" height="50" as="geometry" />
        </mxCell>
        <mxCell id="RxcSMogLH4-RXk6YXUM4-25" value="" style="line;strokeWidth=1;fillColor=none;align=left;verticalAlign=middle;spacingTop=-1;spacingLeft=3;spacingRight=3;rotatable=0;labelPosition=right;points=[];portConstraint=eastwest;strokeColor=inherit;" vertex="1" parent="RxcSMogLH4-RXk6YXUM4-23">
          <mxGeometry y="90" width="160" height="10" as="geometry" />
        </mxCell>
        <mxCell id="RxcSMogLH4-RXk6YXUM4-26" value="+ getColor() : String&lt;br&gt;+ setColor(Color c) : void" style="text;strokeColor=none;fillColor=none;align=left;verticalAlign=top;spacingLeft=4;spacingRight=4;overflow=hidden;rotatable=0;points=[[0,0.5],[1,0.5]];portConstraint=eastwest;whiteSpace=wrap;html=1;" vertex="1" parent="RxcSMogLH4-RXk6YXUM4-23">
          <mxGeometry y="100" width="160" height="50" as="geometry" />
        </mxCell>
        <mxCell id="RxcSMogLH4-RXk6YXUM4-27" value="" style="html=1;verticalAlign=bottom;labelBackgroundColor=none;endArrow=block;endFill=1;rounded=0;entryX=0.231;entryY=1.08;entryDx=0;entryDy=0;entryPerimeter=0;exitX=0.5;exitY=0;exitDx=0;exitDy=0;" edge="1" parent="1" source="RxcSMogLH4-RXk6YXUM4-23" target="RxcSMogLH4-RXk6YXUM4-13">
          <mxGeometry width="160" relative="1" as="geometry">
            <mxPoint x="-220" y="330" as="sourcePoint" />
            <mxPoint x="-60" y="330" as="targetPoint" />
          </mxGeometry>
        </mxCell>
        <mxCell id="RxcSMogLH4-RXk6YXUM4-28" value="" style="html=1;verticalAlign=bottom;labelBackgroundColor=none;endArrow=block;endFill=1;rounded=0;entryX=0.231;entryY=1.08;entryDx=0;entryDy=0;entryPerimeter=0;exitX=0.5;exitY=0;exitDx=0;exitDy=0;" edge="1" parent="1" source="RxcSMogLH4-RXk6YXUM4-19">
          <mxGeometry width="160" relative="1" as="geometry">
            <mxPoint x="-107" y="336" as="sourcePoint" />
            <mxPoint y="200" as="targetPoint" />
          </mxGeometry>
        </mxCell>
        <mxCell id="RxcSMogLH4-RXk6YXUM4-29" value="FourWheeler" style="swimlane;fontStyle=1;align=center;verticalAlign=top;childLayout=stackLayout;horizontal=1;startSize=40;horizontalStack=0;resizeParent=1;resizeParentMax=0;resizeLast=0;collapsible=1;marginBottom=0;whiteSpace=wrap;html=1;" vertex="1" parent="1">
          <mxGeometry x="910" y="340" width="200" height="150" as="geometry" />
        </mxCell>
        <mxCell id="RxcSMogLH4-RXk6YXUM4-30" value="+ wheeler : 4" style="text;strokeColor=none;fillColor=none;align=left;verticalAlign=top;spacingLeft=4;spacingRight=4;overflow=hidden;rotatable=0;points=[[0,0.5],[1,0.5]];portConstraint=eastwest;whiteSpace=wrap;html=1;" vertex="1" parent="RxcSMogLH4-RXk6YXUM4-29">
          <mxGeometry y="40" width="200" height="50" as="geometry" />
        </mxCell>
        <mxCell id="RxcSMogLH4-RXk6YXUM4-31" value="" style="line;strokeWidth=1;fillColor=none;align=left;verticalAlign=middle;spacingTop=-1;spacingLeft=3;spacingRight=3;rotatable=0;labelPosition=right;points=[];portConstraint=eastwest;strokeColor=inherit;" vertex="1" parent="RxcSMogLH4-RXk6YXUM4-29">
          <mxGeometry y="90" width="200" height="10" as="geometry" />
        </mxCell>
        <mxCell id="RxcSMogLH4-RXk6YXUM4-32" value="+ getWheel() : String&lt;br style=&quot;border-color: var(--border-color);&quot;&gt;+ setWheel(Wheeler w) : void" style="text;strokeColor=none;fillColor=none;align=left;verticalAlign=top;spacingLeft=4;spacingRight=4;overflow=hidden;rotatable=0;points=[[0,0.5],[1,0.5]];portConstraint=eastwest;whiteSpace=wrap;html=1;" vertex="1" parent="RxcSMogLH4-RXk6YXUM4-29">
          <mxGeometry y="100" width="200" height="50" as="geometry" />
        </mxCell>
        <mxCell id="RxcSMogLH4-RXk6YXUM4-33" value="TwoWheeler" style="swimlane;fontStyle=1;align=center;verticalAlign=top;childLayout=stackLayout;horizontal=1;startSize=40;horizontalStack=0;resizeParent=1;resizeParentMax=0;resizeLast=0;collapsible=1;marginBottom=0;whiteSpace=wrap;html=1;" vertex="1" parent="1">
          <mxGeometry x="590" y="340" width="180" height="150" as="geometry" />
        </mxCell>
        <mxCell id="RxcSMogLH4-RXk6YXUM4-34" value="+ wheeler : 2" style="text;strokeColor=none;fillColor=none;align=left;verticalAlign=top;spacingLeft=4;spacingRight=4;overflow=hidden;rotatable=0;points=[[0,0.5],[1,0.5]];portConstraint=eastwest;whiteSpace=wrap;html=1;" vertex="1" parent="RxcSMogLH4-RXk6YXUM4-33">
          <mxGeometry y="40" width="180" height="50" as="geometry" />
        </mxCell>
        <mxCell id="RxcSMogLH4-RXk6YXUM4-35" value="" style="line;strokeWidth=1;fillColor=none;align=left;verticalAlign=middle;spacingTop=-1;spacingLeft=3;spacingRight=3;rotatable=0;labelPosition=right;points=[];portConstraint=eastwest;strokeColor=inherit;" vertex="1" parent="RxcSMogLH4-RXk6YXUM4-33">
          <mxGeometry y="90" width="180" height="10" as="geometry" />
        </mxCell>
        <mxCell id="RxcSMogLH4-RXk6YXUM4-36" value="+ getWheel() : String&lt;br style=&quot;border-color: var(--border-color);&quot;&gt;+ setWheel(Wheeler w) : void" style="text;strokeColor=none;fillColor=none;align=left;verticalAlign=top;spacingLeft=4;spacingRight=4;overflow=hidden;rotatable=0;points=[[0,0.5],[1,0.5]];portConstraint=eastwest;whiteSpace=wrap;html=1;" vertex="1" parent="RxcSMogLH4-RXk6YXUM4-33">
          <mxGeometry y="100" width="180" height="50" as="geometry" />
        </mxCell>
        <mxCell id="RxcSMogLH4-RXk6YXUM4-37" value="" style="html=1;verticalAlign=bottom;labelBackgroundColor=none;endArrow=block;endFill=1;rounded=0;entryX=0.231;entryY=1.08;entryDx=0;entryDy=0;entryPerimeter=0;exitX=0.5;exitY=0;exitDx=0;exitDy=0;" edge="1" parent="1" source="RxcSMogLH4-RXk6YXUM4-33">
          <mxGeometry width="160" relative="1" as="geometry">
            <mxPoint x="650" y="330" as="sourcePoint" />
            <mxPoint x="777" y="204" as="targetPoint" />
          </mxGeometry>
        </mxCell>
        <mxCell id="RxcSMogLH4-RXk6YXUM4-38" value="" style="html=1;verticalAlign=bottom;labelBackgroundColor=none;endArrow=block;endFill=1;rounded=0;entryX=0.231;entryY=1.08;entryDx=0;entryDy=0;entryPerimeter=0;exitX=0.5;exitY=0;exitDx=0;exitDy=0;" edge="1" parent="1" source="RxcSMogLH4-RXk6YXUM4-29">
          <mxGeometry width="160" relative="1" as="geometry">
            <mxPoint x="763" y="336" as="sourcePoint" />
            <mxPoint x="870" y="200" as="targetPoint" />
          </mxGeometry>
        </mxCell>
        <mxCell id="RxcSMogLH4-RXk6YXUM4-39" value="Car" style="swimlane;fontStyle=1;align=center;verticalAlign=top;childLayout=stackLayout;horizontal=1;startSize=40;horizontalStack=0;resizeParent=1;resizeParentMax=0;resizeLast=0;collapsible=1;marginBottom=0;whiteSpace=wrap;html=1;" vertex="1" parent="1">
          <mxGeometry x="480" y="590" width="160" height="150" as="geometry" />
        </mxCell>
        <mxCell id="RxcSMogLH4-RXk6YXUM4-40" value="+ color: Color&lt;br style=&quot;border-color: var(--border-color);&quot;&gt;+ wheeler : Wheeler" style="text;strokeColor=none;fillColor=none;align=left;verticalAlign=top;spacingLeft=4;spacingRight=4;overflow=hidden;rotatable=0;points=[[0,0.5],[1,0.5]];portConstraint=eastwest;whiteSpace=wrap;html=1;" vertex="1" parent="RxcSMogLH4-RXk6YXUM4-39">
          <mxGeometry y="40" width="160" height="50" as="geometry" />
        </mxCell>
        <mxCell id="RxcSMogLH4-RXk6YXUM4-41" value="" style="line;strokeWidth=1;fillColor=none;align=left;verticalAlign=middle;spacingTop=-1;spacingLeft=3;spacingRight=3;rotatable=0;labelPosition=right;points=[];portConstraint=eastwest;strokeColor=inherit;" vertex="1" parent="RxcSMogLH4-RXk6YXUM4-39">
          <mxGeometry y="90" width="160" height="10" as="geometry" />
        </mxCell>
        <mxCell id="RxcSMogLH4-RXk6YXUM4-42" value="+ display(): void" style="text;strokeColor=none;fillColor=none;align=left;verticalAlign=top;spacingLeft=4;spacingRight=4;overflow=hidden;rotatable=0;points=[[0,0.5],[1,0.5]];portConstraint=eastwest;whiteSpace=wrap;html=1;" vertex="1" parent="RxcSMogLH4-RXk6YXUM4-39">
          <mxGeometry y="100" width="160" height="50" as="geometry" />
        </mxCell>
        <mxCell id="RxcSMogLH4-RXk6YXUM4-43" value="Bike" style="swimlane;fontStyle=1;align=center;verticalAlign=top;childLayout=stackLayout;horizontal=1;startSize=40;horizontalStack=0;resizeParent=1;resizeParentMax=0;resizeLast=0;collapsible=1;marginBottom=0;whiteSpace=wrap;html=1;" vertex="1" parent="1">
          <mxGeometry x="160" y="590" width="160" height="150" as="geometry" />
        </mxCell>
        <mxCell id="RxcSMogLH4-RXk6YXUM4-44" value="+ color: Color&lt;br style=&quot;border-color: var(--border-color);&quot;&gt;+ wheeler : Wheeler" style="text;strokeColor=none;fillColor=none;align=left;verticalAlign=top;spacingLeft=4;spacingRight=4;overflow=hidden;rotatable=0;points=[[0,0.5],[1,0.5]];portConstraint=eastwest;whiteSpace=wrap;html=1;" vertex="1" parent="RxcSMogLH4-RXk6YXUM4-43">
          <mxGeometry y="40" width="160" height="50" as="geometry" />
        </mxCell>
        <mxCell id="RxcSMogLH4-RXk6YXUM4-45" value="" style="line;strokeWidth=1;fillColor=none;align=left;verticalAlign=middle;spacingTop=-1;spacingLeft=3;spacingRight=3;rotatable=0;labelPosition=right;points=[];portConstraint=eastwest;strokeColor=inherit;" vertex="1" parent="RxcSMogLH4-RXk6YXUM4-43">
          <mxGeometry y="90" width="160" height="10" as="geometry" />
        </mxCell>
        <mxCell id="RxcSMogLH4-RXk6YXUM4-46" value="+ display(): void" style="text;strokeColor=none;fillColor=none;align=left;verticalAlign=top;spacingLeft=4;spacingRight=4;overflow=hidden;rotatable=0;points=[[0,0.5],[1,0.5]];portConstraint=eastwest;whiteSpace=wrap;html=1;" vertex="1" parent="RxcSMogLH4-RXk6YXUM4-43">
          <mxGeometry y="100" width="160" height="50" as="geometry" />
        </mxCell>
        <mxCell id="RxcSMogLH4-RXk6YXUM4-47" value="" style="html=1;verticalAlign=bottom;labelBackgroundColor=none;endArrow=block;endFill=1;rounded=0;entryX=0.294;entryY=1.133;entryDx=0;entryDy=0;entryPerimeter=0;exitX=0.5;exitY=0;exitDx=0;exitDy=0;" edge="1" parent="1" source="RxcSMogLH4-RXk6YXUM4-43" target="RxcSMogLH4-RXk6YXUM4-5">
          <mxGeometry width="160" relative="1" as="geometry">
            <mxPoint x="220" y="580" as="sourcePoint" />
            <mxPoint x="347" y="454" as="targetPoint" />
          </mxGeometry>
        </mxCell>
        <mxCell id="RxcSMogLH4-RXk6YXUM4-48" value="" style="html=1;verticalAlign=bottom;labelBackgroundColor=none;endArrow=block;endFill=1;rounded=0;entryX=0.744;entryY=0.967;entryDx=0;entryDy=0;entryPerimeter=0;exitX=0.5;exitY=0;exitDx=0;exitDy=0;" edge="1" parent="1" source="RxcSMogLH4-RXk6YXUM4-39" target="RxcSMogLH4-RXk6YXUM4-5">
          <mxGeometry width="160" relative="1" as="geometry">
            <mxPoint x="333" y="586" as="sourcePoint" />
            <mxPoint x="440" y="450" as="targetPoint" />
          </mxGeometry>
        </mxCell>
      </root>
    </mxGraphModel>
  </diagram>
</mxfile>
